<?xml version="1.0" encoding="UTF-8"?>
<svg version="1.1" xmlns="http://www.w3.org/2000/svg" width="256" height="256">
<path d="M0 0 C14.19409656 13.03872101 24.3101278 27.80362353 32.15966797 45.3515625 C32.88283203 46.96611328 32.88283203 46.96611328 33.62060547 48.61328125 C38.79736424 61.11593804 41.74048799 74.82845178 42.15966797 88.3515625 C42.19962891 89.41117187 42.23958984 90.47078125 42.28076172 91.5625 C42.98499685 127.76847108 29.87251812 159.60827635 5.01489258 185.83300781 C-16.47798108 207.88243452 -46.88320173 222.20853 -77.84033203 223.3515625 C-79.53029297 223.42890625 -79.53029297 223.42890625 -81.25439453 223.5078125 C-117.47079607 224.37874801 -150.14146148 210.99391472 -176.31738281 186.20898438 C-198.31084666 164.80079064 -212.85379716 134.23439333 -213.84033203 103.3515625 C-213.88029297 102.1553125 -213.92025391 100.9590625 -213.96142578 99.7265625 C-214.59405841 71.09105079 -206.92770846 43.5512218 -189.84033203 20.3515625 C-189.24994141 19.53816406 -188.65955078 18.72476563 -188.05126953 17.88671875 C-167.80470908 -8.69227657 -138.81083932 -26.09846566 -105.84033203 -31.6484375 C-67.496162 -36.80149371 -28.90483417 -25.89087826 0 0 Z " fill="#1B1B1A" transform="translate(213.84033203125,32.6484375)"/>
<path d="M0 0 C10.10342681 3.3112071 17.9534153 9.96763576 22.8515625 19.4140625 C26.89735967 27.67146819 26.90051247 37.36911367 24.0390625 46.0390625 C20.03254332 55.66311383 13.45407121 63.00554814 3.75572205 67.06089783 C-2.31612495 69.29668104 -7.68955782 69.68821349 -14.12109375 69.58203125 C-15.10718124 69.57778641 -16.09326874 69.57354156 -17.10923767 69.56916809 C-20.22676099 69.55251421 -23.343613 69.5148873 -26.4609375 69.4765625 C-28.58788122 69.46149847 -30.71483518 69.44781309 -32.84179688 69.43554688 C-38.02759832 69.40265432 -43.2129045 69.3509651 -48.3984375 69.2890625 C-47.80972618 68.60750092 -47.80972618 68.60750092 -47.2091217 67.91217041 C-43.80450217 63.95963717 -43.80450217 63.95963717 -40.55249023 59.88183594 C-37.73657756 56.51319 -35.65272431 54.5555223 -31.28173828 53.62695312 C-27.65229128 53.42080992 -24.09436577 53.42843844 -20.4609375 53.5390625 C-7.19886736 53.9575118 -7.19886736 53.9575118 4.17919922 47.8762207 C8.60879572 42.90982391 10.1367921 38.16497389 9.984375 31.6328125 C9.11955012 26.33796632 5.9121209 22.56601684 2.1640625 18.9140625 C-2.88493086 15.71226183 -7.64105803 15.0264312 -13.546875 14.875 C-14.20426666 14.85563385 -14.86165833 14.8362677 -15.53897095 14.8163147 C-17.61699885 14.75703789 -19.69508374 14.71034456 -21.7734375 14.6640625 C-23.191429 14.62583472 -24.60939847 14.58678027 -26.02734375 14.546875 C-29.48417211 14.45138079 -32.94116733 14.36716061 -36.3984375 14.2890625 C-35.80421997 13.60831665 -35.80421997 13.60831665 -35.19799805 12.91381836 C-31.80981534 9.00594874 -31.80981534 9.00594874 -28.73046875 4.85546875 C-22.02195431 -3.99149246 -9.79836005 -2.04977187 0 0 Z " fill="#FA7B34" transform="translate(176.3984375,113.7109375)"/>
<path d="M0 0 C0.1358035 2.71003427 0.23444624 5.41318941 0.3125 8.125 C0.35439453 8.88554688 0.39628906 9.64609375 0.43945312 10.4296875 C0.5283993 14.55678988 0.34886731 17.10288043 -2.39453125 20.3046875 C-3.25433594 21.19414062 -4.11414063 22.08359375 -5 23 C-7.58949109 27.23734906 -7.63808508 31.15055342 -7 36 C-5.13448196 41.93573922 -1.98663017 45.42263488 3 49 C8.48041719 51.74020859 17.09866735 51.33288502 23 50 C27.95800692 47.43680397 31.41260916 43.18623089 35 39 C36.65342927 37.32020025 38.32052325 35.65375735 40 34 C40.42337646 33.46141357 40.84675293 32.92282715 41.28295898 32.36791992 C43.44982288 29.7682195 44.96405743 28.20959868 48.35058594 27.52441406 C51.05011253 27.41029266 53.67752767 27.47492665 56.375 27.625 C57.76525391 27.66560547 57.76525391 27.66560547 59.18359375 27.70703125 C61.4581663 27.77737885 63.72784319 27.87571653 66 28 C65.10959463 29.23310435 64.21234296 30.46126564 63.3125 31.6875 C62.81363281 32.37199219 62.31476563 33.05648437 61.80078125 33.76171875 C59.70297626 36.36918569 57.37056163 38.63825332 55 41 C53.68870574 42.50535735 52.37795086 44.01127565 51.08232117 45.53013611 C32.58014582 67.05802025 32.58014582 67.05802025 22.30078125 68.84765625 C10.28640319 69.4637548 -1.74478362 66.31772534 -11.1875 58.68359375 C-18.16871662 52.19888607 -22.2621417 44.24920805 -23.3828125 34.7578125 C-23.74026219 24.63007114 -21.00940603 16.73568157 -14.71875 8.82421875 C-10.83816098 4.70550268 -5.85579206 0 0 0 Z " fill="#F67B35" transform="translate(77,116)"/>
<path d="M0 0 C0.70495605 0.00161133 1.40991211 0.00322266 2.13623047 0.00488281 C10.8425958 0.20703379 18.521839 2.92362193 25.375 8.375 C25.93703125 8.82101563 26.4990625 9.26703125 27.078125 9.7265625 C32.79692217 14.77402261 35.83614741 21.26063286 38.375 28.375 C38.375 29.695 38.375 31.015 38.375 32.375 C33.095 32.375 27.815 32.375 22.375 32.375 C21.715 30.828125 21.055 29.28125 20.375 27.6875 C17.71943713 22.31550177 14.70747353 19.90586492 9.375 17.375 C8.715 17.045 8.055 16.715 7.375 16.375 C0.6354767 15.72359626 -4.48024905 16.62045647 -10.625 19.375 C-11.40875 19.684375 -12.1925 19.99375 -13 20.3125 C-15.1794443 21.73752127 -15.64609744 22.96037369 -16.625 25.375 C-17.36943359 26.94121094 -17.36943359 26.94121094 -18.12890625 28.5390625 C-20.73922262 34.67868601 -21.44369104 41.90351705 -19.625 48.375 C-16.87472925 53.16892591 -12.78286469 56.81111598 -8.625 60.375 C-9.56090504 61.4805189 -10.49879858 62.58435453 -11.4375 63.6875 C-11.95957031 64.30238281 -12.48164062 64.91726562 -13.01953125 65.55078125 C-14.49672469 67.22924679 -16.02539131 68.81382034 -17.625 70.375 C-24.93833143 66.88545612 -31.73548521 61.59919964 -35.625 54.375 C-38.29029285 43.67618829 -37.51678816 29.68618068 -32.30078125 19.8125 C-26.95128455 12.0314139 -21.34493153 6.19394812 -12.625 2.375 C-11.49191406 1.82972656 -11.49191406 1.82972656 -10.3359375 1.2734375 C-6.87779614 0.1273676 -3.60610395 -0.00857168 0 0 Z " fill="#F67B35" transform="translate(127.625,65.625)"/>
<path d="M0 0 C0.495 1.98 0.495 1.98 1 4 C-3.47766708 5.71163468 -7.25991199 6.26963865 -12.04296875 6.34375 C-12.69324539 6.3583728 -13.34352203 6.37299561 -14.01350403 6.38806152 C-16.77077462 6.44986302 -19.52825241 6.49002883 -22.28588867 6.53173828 C-24.3092265 6.56547246 -26.33236249 6.61069793 -28.35546875 6.65625 C-29.55840576 6.67494141 -30.76134277 6.69363281 -32.00073242 6.71289062 C-35.18036578 6.77871276 -35.18036578 6.77871276 -38 9 C-38 9.99 -38 10.98 -38 12 C-43.23255814 17 -43.23255814 17 -47 17 C-47 17.66 -47 18.32 -47 19 C-46.34 18.67 -45.68 18.34 -45 18 C-43.6688143 17.88805018 -42.33251242 17.83357675 -40.99682617 17.81054688 C-40.17224411 17.79382935 -39.34766205 17.77711182 -38.49809265 17.7598877 C-37.60540176 17.74631226 -36.71271088 17.73273682 -35.79296875 17.71875 C-34.87542313 17.70034058 -33.9578775 17.68193115 -33.01252747 17.66296387 C-30.07091793 17.60411325 -27.12924911 17.55136959 -24.1875 17.5 C-20.32670373 17.43221672 -16.46608649 17.358467 -12.60546875 17.28125 C-11.71885056 17.26767456 -10.83223236 17.25409912 -9.91874695 17.2401123 C-5.82976339 17.15815242 -1.988906 17.01299039 2 16 C2 15.34 2 14.68 2 14 C3.32 14.33 4.64 14.66 6 15 C0.32280381 18.45084475 -3.95712529 20.13251514 -10.69848633 20.11352539 C-12.0493206 20.11341209 -12.0493206 20.11341209 -13.42744446 20.11329651 C-14.86521492 20.10555458 -14.86521492 20.10555458 -16.33203125 20.09765625 C-17.81965218 20.09553383 -17.81965218 20.09553383 -19.33732605 20.09336853 C-22.49574843 20.08778418 -25.65409915 20.07523452 -28.8125 20.0625 C-30.95768127 20.05748298 -33.10286365 20.05292042 -35.24804688 20.04882812 C-40.49872224 20.03781988 -45.749356 20.0210973 -51 20 C-50.60752579 19.54562561 -50.21505157 19.09125122 -49.8106842 18.62310791 C-46.40606467 14.67057467 -46.40606467 14.67057467 -43.15405273 10.59277344 C-40.33814006 7.2241275 -38.25428681 5.2664598 -33.88330078 4.33789062 C-30.25385378 4.13174742 -26.69592827 4.13937594 -23.0625 4.25 C-14.44286565 4.40432731 -7.58288238 4.45505327 0 0 Z " fill="#E47D42" transform="translate(179,163)"/>
<path d="M0 0 C1.90244765 6.35197398 2.68957893 14.60060767 -0.3046875 20.625 C-1.7773785 22.54161221 -3.31875747 24.26752847 -5 26 C-6.35091528 28.70183055 -6.33858058 31.11808206 -6.5625 34.125 C-6.64628906 35.22070312 -6.73007813 36.31640625 -6.81640625 37.4453125 C-6.87699219 38.28835937 -6.93757813 39.13140625 -7 40 C-6.34 40 -5.68 40 -5 40 C-4.67 40.99 -4.34 41.98 -4 43 C-3.34 43.33 -2.68 43.66 -2 44 C-2.33 45.32 -2.66 46.64 -3 48 C-7.59242405 42.64217194 -9.5242317 38.40255081 -9.39453125 31.3515625 C-8.56240811 26.39177903 -5.48710033 22.48710033 -2 19 C-1.69324768 16.10032243 -1.48826629 13.28216822 -1.375 10.375 C-1.31699219 9.17230469 -1.31699219 9.17230469 -1.2578125 7.9453125 C-1.16346069 5.96392444 -1.08063785 3.98199355 -1 2 C-2.98 2.66 -4.96 3.32 -7 4 C-7 3.34 -7 2.68 -7 2 C-4 0 -4 0 0 0 Z " fill="#331608" transform="translate(78,114)"/>
<path d="M0 0 C0 3 0 3 -1.09399414 4.59228516 C-4.87585039 8.24205139 -7.6501565 9.41151181 -12.93359375 9.5859375 C-15.10234178 9.54638586 -17.27071164 9.47530237 -19.4375 9.375 C-20.55060547 9.34792969 -21.66371094 9.32085937 -22.81054688 9.29296875 C-25.5423912 9.22262083 -28.27016464 9.12424271 -31 9 C-31 8.34 -31 7.68 -31 7 C-33.64 7.33 -36.28 7.66 -39 8 C-42 4.25 -42 4.25 -42 2 C-36 4 -36 4 -33.5390625 5.0390625 C-28.36494201 6.44395614 -23.33932002 6.44841237 -18 6.5 C-16.93265625 6.54125 -15.8653125 6.5825 -14.765625 6.625 C-9.04692056 6.78295713 -9.04692056 6.78295713 -3.9140625 4.62890625 C-2.04711591 2.84248858 -2.04711591 2.84248858 0 0 Z " fill="#2E1307" transform="translate(112,176)"/>
<path d="M0 0 C0.66 0 1.32 0 2 0 C1.69191406 1.07121094 1.38382812 2.14242187 1.06640625 3.24609375 C-1.3034117 12.88420055 -3.5881597 26.64944238 1.48095703 35.62109375 C5.34034735 40.47486007 9.96048364 44.41247195 15 48 C13.515 48.495 13.515 48.495 12 49 C11.34 48.67 10.68 48.34 10 48 C10 47.01 10 46.02 10 45 C8.68 44.34 7.36 43.68 6 43 C6 42.34 6 41.68 6 41 C5.34 41 4.68 41 4 41 C4 40.34 4 39.68 4 39 C3.38125 38.731875 2.7625 38.46375 2.125 38.1875 C0 37 0 37 -2 34 C-2.25878906 31.29199219 -2.25878906 31.29199219 -2.265625 28.046875 C-2.26820312 26.86996094 -2.27078125 25.69304687 -2.2734375 24.48046875 C-2.26570313 23.24941406 -2.25796875 22.01835938 -2.25 20.75 C-2.25773437 19.53441406 -2.26546875 18.31882812 -2.2734375 17.06640625 C-2.26023011 11.01081848 -2.12462107 5.69938032 0 0 Z " fill="#381907" transform="translate(93,87)"/>
<path d="M0 0 C10.89 0 21.78 0 33 0 C32.67 0.66 32.34 1.32 32 2 C28.71183188 3.09605604 26.18429773 3.1572228 22.72265625 3.2109375 C21.48708984 3.23929688 20.25152344 3.26765625 18.97851562 3.296875 C16.37188757 3.34887755 13.76509414 3.39317277 11.15820312 3.4296875 C9.92134766 3.460625 8.68449219 3.4915625 7.41015625 3.5234375 C6.27715088 3.54325684 5.14414551 3.56307617 3.97680664 3.58349609 C0.75647364 4.03407332 -0.63580785 4.82671881 -3 7 C-2.67 5.35 -2.34 3.7 -2 2 C-1.34 2 -0.68 2 0 2 C0 1.34 0 0.68 0 0 Z " fill="#442511" transform="translate(141,165)"/>
<path d="M0 0 C0.66 0.33 1.32 0.66 2 1 C1.58427734 1.79664063 1.58427734 1.79664063 1.16015625 2.609375 C0.79792969 3.31578125 0.43570313 4.0221875 0.0625 4.75 C-0.29714844 5.44609375 -0.65679687 6.1421875 -1.02734375 6.859375 C-5.34885979 16.37018138 -3.20470683 27.48125769 0 37 C-0.99 36.67 -1.98 36.34 -3 36 C-3 34.68 -3 33.36 -3 32 C-3.66 32 -4.32 32 -5 32 C-5.22506224 27.54234428 -5.4272243 23.08394312 -5.625 18.625 C-5.68945312 17.35398438 -5.75390625 16.08296875 -5.8203125 14.7734375 C-5.871875 13.56171875 -5.9234375 12.35 -5.9765625 11.1015625 C-6.02893066 9.98088379 -6.08129883 8.86020508 -6.13525391 7.70556641 C-6 5 -6 5 -4 3 C-3.01 3 -2.02 3 -1 3 C-0.67 2.01 -0.34 1.02 0 0 Z " fill="#32190B" transform="translate(58,128)"/>
<path d="M0 0 C0.83917969 0.02344482 1.67835938 0.04688965 2.54296875 0.07104492 C9.63185321 0.39718284 17.17500424 1.34515192 22.59375 6.32421875 C22.9959375 6.77410156 23.398125 7.22398438 23.8125 7.6875 C21.99891846 7.21244322 20.18665821 6.73233958 18.375 6.25 C17.36566406 5.98316406 16.35632813 5.71632813 15.31640625 5.44140625 C12.8125 4.6875 12.8125 4.6875 11.8125 3.6875 C10.25301458 3.53063751 8.68707332 3.43673361 7.12109375 3.37109375 C6.17685547 3.32919922 5.23261719 3.28730469 4.25976562 3.24414062 C3.26654297 3.20482422 2.27332031 3.16550781 1.25 3.125 C0.25291016 3.08181641 -0.74417969 3.03863281 -1.77148438 2.99414062 C-4.2433415 2.88769702 -6.7153031 2.78568072 -9.1875 2.6875 C-9.5175 4.0075 -9.8475 5.3275 -10.1875 6.6875 C-11.8375 7.0175 -13.4875 7.3475 -15.1875 7.6875 C-10.91847441 1.18547805 -7.69239095 -0.41132924 0 0 Z " fill="#DC7B44" transform="translate(163.1875,112.3125)"/>
<path d="M0 0 C3.26008643 3.16952847 6.22237877 6.39937989 9 10 C6.03 12.97 3.06 15.94 0 19 C-4 17 -4 17 -5 15 C-3.68 15.33 -2.36 15.66 -1 16 C-1.33 15.01 -1.66 14.02 -2 13 C0.97 10.525 0.97 10.525 4 8 C3.01 6.576875 3.01 6.576875 2 5.125 C0 2 0 2 0 0 Z " fill="#E57B40" transform="translate(110,117)"/>
<path d="M0 0 C0.495 1.485 0.495 1.485 1 3 C0.17113281 2.84144531 -0.65773437 2.68289062 -1.51171875 2.51953125 C-11.44751458 1.03973187 -21.16486164 0.7664467 -30 6 C-31.175625 6.5775 -32.35125 7.155 -33.5625 7.75 C-34.366875 8.1625 -35.17125 8.575 -36 9 C-36.33 7.68 -36.66 6.36 -37 5 C-35.68 5.33 -34.36 5.66 -33 6 C-33 5.01 -33 4.02 -33 3 C-30.36 2.67 -27.72 2.34 -25 2 C-25 1.34 -25 0.68 -25 0 C-16.56758584 -1.35520942 -8.46334215 -0.67499048 0 0 Z " fill="#2D170B" transform="translate(141,65)"/>
<path d="M0 0 C0.495 1.485 0.495 1.485 1 3 C-10.58647706 7.20507576 -22.61755495 6.33507181 -34.75 6.1875 C-36.91144902 6.17242691 -39.07290819 6.15874315 -41.234375 6.14648438 C-46.48980774 6.11368487 -51.74485559 6.06369376 -57 6 C-57 5.67 -57 5.34 -57 5 C-55.71424072 4.98541748 -54.42848145 4.97083496 -53.10375977 4.95581055 C-48.30075262 4.89752431 -43.4981995 4.82029439 -38.69555664 4.73754883 C-36.62304086 4.70444155 -34.55043799 4.67636612 -32.4777832 4.65356445 C-29.48611589 4.61975624 -26.49523651 4.56742832 -23.50390625 4.51171875 C-22.58791153 4.50532883 -21.67191681 4.4989389 -20.72816467 4.49235535 C-13.46738722 4.32907934 -6.69015562 0 0 0 Z " fill="#351204" transform="translate(186,178)"/>
<path d="M0 0 C2.625 0.375 2.625 0.375 5 1 C4.06409496 2.1055189 3.12620142 3.20935453 2.1875 4.3125 C1.66542969 4.92738281 1.14335937 5.54226562 0.60546875 6.17578125 C-0.86331751 7.84469411 -2.42796259 9.42796259 -4 11 C5.57 11.33 15.14 11.66 25 12 C25 12.33 25 12.66 25 13 C14.77 13 4.54 13 -6 13 C-5 8 -5 8 -3 6 C-2.835 5.34 -2.67 4.68 -2.5 4 C-2 2 -2 2 0 0 Z " fill="#4A2917" transform="translate(145,116)"/>
<path d="M0 0 C0 0.66 0 1.32 0 2 C-1.65848177 3.01351664 -3.32665961 4.01120795 -5 5 C-8.62197163 8.00106221 -9.78533749 10.48462415 -11 15 C-11.277436 18.75285987 -11.277436 18.75285987 -11.1875 22.625 C-11.18105469 23.91664062 -11.17460938 25.20828125 -11.16796875 26.5390625 C-11.03663187 29.24521308 -10.81208875 31.44029626 -10 34 C-11.96875 32.98046875 -11.96875 32.98046875 -14 31 C-14.41296715 28.27016569 -14.57110589 26.03408572 -14.5 23.3125 C-14.48864014 22.59151123 -14.47728027 21.87052246 -14.46557617 21.12768555 C-14.19243441 13.64968991 -12.30150098 9.58217183 -7.4375 4.125 C-2.70588235 0 -2.70588235 0 0 0 Z " fill="#4D210B" transform="translate(121,83)"/>
<path d="M0 0 C2 1 2 1 2.7109375 2.85546875 C2.93007813 3.62503906 3.14921875 4.39460937 3.375 5.1875 C4.68767209 9.40151398 6.37507175 12.46992407 9 16 C10.65 15.67 12.3 15.34 14 15 C15.0625 16.875 15.0625 16.875 16 19 C15.67 19.66 15.34 20.32 15 21 C16.32 21.66 17.64 22.32 19 23 C19 23.66 19 24.32 19 25 C12.48265152 23.16699574 7.64839044 18.66600146 4.15234375 13.01171875 C0 4.97207447 0 4.97207447 0 0 Z " fill="#E27B41" transform="translate(55,154)"/>
<path d="M0 0 C0.99 0.33 1.98 0.66 3 1 C3 1.66 3 2.32 3 3 C3.99 3 4.98 3 6 3 C7.01052331 8.87720356 7.18330788 14.60549668 7.1875 20.5625 C7.19974609 21.48224609 7.21199219 22.40199219 7.22460938 23.34960938 C7.23530542 28.30900972 6.95723755 32.3505938 5 37 C4.01 37 3.02 37 2 37 C2.32484375 36.03513672 2.32484375 36.03513672 2.65625 35.05078125 C6.20562541 23.53174347 6.24158787 13.90418681 1 3 C0.67 2.01 0.34 1.02 0 0 Z " fill="#37190A" transform="translate(196,128)"/>
<path d="M0 0 C0 3 0 3 -1.5 4.6875 C-1.995 5.120625 -2.49 5.55375 -3 6 C-2.23445801 6.01458252 -1.46891602 6.02916504 -0.68017578 6.04418945 C2.83868569 6.11934702 6.3566677 6.21578236 9.875 6.3125 C11.07898438 6.33505859 12.28296875 6.35761719 13.5234375 6.38085938 C20.80810318 6.59860753 27.1577245 7.44229696 34 10 C34.495 12.475 34.495 12.475 35 15 C34.46890625 14.65066406 33.9378125 14.30132812 33.390625 13.94140625 C32.68421875 13.48636719 31.9778125 13.03132812 31.25 12.5625 C30.55390625 12.11003906 29.8578125 11.65757812 29.140625 11.19140625 C24.90969328 8.83659936 20.83778067 8.82569688 16.046875 8.68359375 C15.38665344 8.66281265 14.72643188 8.64203156 14.04620361 8.62062073 C11.94756985 8.55549853 9.84881628 8.49641498 7.75 8.4375 C6.32290453 8.39427921 4.89582095 8.3506638 3.46875 8.30664062 C-0.02070722 8.19985589 -3.51029753 8.09848434 -7 8 C-6.02133662 6.85373678 -5.04205413 5.70800212 -4.0625 4.5625 C-3.51722656 3.92441406 -2.97195312 3.28632812 -2.41015625 2.62890625 C-1.63204305 1.73008851 -0.84063472 0.84063472 0 0 Z " fill="#E7824B" transform="translate(147,120)"/>
<path d="M0 0 C3.3 0 6.6 0 10 0 C10.33 0.66 10.66 1.32 11 2 C10.13117188 2.09796875 9.26234375 2.1959375 8.3671875 2.296875 C1.82641779 3.14556548 -2.84976489 3.82413369 -8 8 C-8.66 8 -9.32 8 -10 8 C-10.66 9.32 -11.32 10.64 -12 12 C-12.99 11.67 -13.98 11.34 -15 11 C-15 10.34 -15 9.68 -15 9 C-13.68 9 -12.36 9 -11 9 C-10.67 7.35 -10.34 5.7 -10 4 C-8.68 4 -7.36 4 -6 4 C-6 3.34 -6 2.68 -6 2 C-4.02 2 -2.04 2 0 2 C0 1.34 0 0.68 0 0 Z " fill="#E47941" transform="translate(123,79)"/>
<path d="M0 0 C0 3 0 3 -1 5 C12.53 5 26.06 5 40 5 C40 5.33 40 5.66 40 6 C25.15 6 10.3 6 -5 6 C-3.35 4.02 -1.7 2.04 0 0 Z " fill="#B86F48" transform="translate(133,177)"/>
<path d="M0 0 C0 4.74707229 -2.29381796 7.25850886 -5.5 10.625 C-6.325 11.40875 -7.15 12.1925 -8 13 C-8.515625 13.61875 -9.03125 14.2375 -9.5625 14.875 C-10.2740625 15.431875 -10.2740625 15.431875 -11 16 C-13.08984375 15.5703125 -13.08984375 15.5703125 -15 15 C-10.28109462 9.59947495 -5.69641143 4.38185495 0 0 Z " fill="#271410" transform="translate(140,148)"/>
<path d="M0 0 C0.33 0.66 0.66 1.32 1 2 C0.70351562 2.57234375 0.40703125 3.1446875 0.1015625 3.734375 C-1.29880632 6.61456619 -1.41722918 9.06418083 -1.625 12.25 C-1.69976562 13.32765625 -1.77453125 14.4053125 -1.8515625 15.515625 C-1.90054688 16.33546875 -1.94953125 17.1553125 -2 18 C-1.34 18 -0.68 18 0 18 C0.33 18.99 0.66 19.98 1 21 C1.66 21.33 2.32 21.66 3 22 C2.67 23.32 2.34 24.64 2 26 C-2.64980595 20.57522639 -4.45509685 16.40678198 -4.3359375 9.29296875 C-3.78860862 5.55713092 -2.10893122 3.09749273 0 0 Z " fill="#421D0B" transform="translate(73,136)"/>
<path d="M0 0 C2.65269897 2.47585238 4.68010103 4.59026101 6 8 C6 8.99 6 9.98 6 11 C10.62 11 15.24 11 20 11 C20 11.33 20 11.66 20 12 C17.58265458 12.08117951 15.16805051 12.14056926 12.75 12.1875 C12.06808594 12.21263672 11.38617188 12.23777344 10.68359375 12.26367188 C7.60220468 12.30854647 5.33892053 12.16946027 2.5625 10.78125 C0.61534016 8.56148778 0.41941036 7.23482876 0.25 4.3125 C0.19328125 3.50425781 0.1365625 2.69601563 0.078125 1.86328125 C0.05234375 1.24839844 0.0265625 0.63351563 0 0 Z " fill="#33190B" transform="translate(144,87)"/>
<path d="M0 0 C6.6103677 6.26245362 6.6103677 6.26245362 7.30078125 11.11328125 C7.32957042 16.51604863 6.46031431 20.18188448 4 25 C3.67 24.01 3.34 23.02 3 22 C3.33 21.34 3.66 20.68 4 20 C4.61648647 13.5150366 3.94757998 8.77725675 1 3 C0.67 2.01 0.34 1.02 0 0 Z " fill="#431F09" transform="translate(180,134)"/>
<path d="M0 0 C0 2 0 4 0 6 C-0.66 6 -1.32 6 -2 6 C-2 6.66 -2 7.32 -2 8 C-8.27 8 -14.54 8 -21 8 C-21 7.67 -21 7.34 -21 7 C-19.98679687 6.99742187 -18.97359375 6.99484375 -17.9296875 6.9921875 C-9.25607987 7.11335168 -9.25607987 7.11335168 -2.0625 2.9375 C-1.381875 1.968125 -0.70125 0.99875 0 0 Z " fill="#B66330" transform="translate(106,160)"/>
<path d="M0 0 C0 5.61 0 11.22 0 17 C-0.66 17 -1.32 17 -2 17 C-2.04898438 16.01257813 -2.09796875 15.02515625 -2.1484375 14.0078125 C-2.22320312 12.72648438 -2.29796875 11.44515625 -2.375 10.125 C-2.44460937 8.84882812 -2.51421875 7.57265625 -2.5859375 6.2578125 C-2.67241106 2.91938301 -2.67241106 2.91938301 -5 1 C-3 0 -3 0 0 0 Z " fill="#D37A47" transform="translate(77,116)"/>
<path d="M0 0 C-0.66 1.32 -1.32 2.64 -2 4 C-2.66 4 -3.32 4 -4 4 C-4.2475 4.598125 -4.495 5.19625 -4.75 5.8125 C-6.16370012 8.28647521 -7.65055383 9.43370255 -10 11 C-10 9.68 -10 8.36 -10 7 C-8.68 6.67 -7.36 6.34 -6 6 C-6.66 4.68 -7.32 3.36 -8 2 C-2.25 0 -2.25 0 0 0 Z " fill="#3C1F12" transform="translate(117,149)"/>
<path d="M0 0 C0 0.66 0 1.32 0 2 C-1.65848177 3.01351664 -3.32665961 4.01120795 -5 5 C-8.56445041 7.95340177 -9.78720999 10.55310329 -11 15 C-11.66 15 -12.32 15 -13 15 C-11.67747647 8.8683 -7.32333813 0 0 0 Z " fill="#3B1B08" transform="translate(121,83)"/>
<path d="M0 0 C1 2 1 2 0.3125 4.375 C-1.10916729 7.21833459 -2.57792728 8.95637614 -5 11 C-5.66 11 -6.32 11 -7 11 C-6.67 9.35 -6.34 7.7 -6 6 C-5.01 6.33 -4.02 6.66 -3 7 C-3.061875 6.21625 -3.12375 5.4325 -3.1875 4.625 C-3.125625 3.75875 -3.06375 2.8925 -3 2 C-2.01 1.34 -1.02 0.68 0 0 Z " fill="#2A1611" transform="translate(183,154)"/>
<path d="M0 0 C0.33 0.99 0.66 1.98 1 3 C-2.3 5.97 -5.6 8.94 -9 12 C-9.66 11.67 -10.32 11.34 -11 11 C-7.37 7.37 -3.74 3.74 0 0 Z " fill="#2E150A" transform="translate(124,164)"/>
<path d="M0 0 C1 3 1 3 0 6 C-1.97956942 7.69088222 -3.97945196 9.35830472 -6 11 C-6.33 11.66 -6.66 12.32 -7 13 C-8.32 12.67 -9.64 12.34 -11 12 C-10.54109375 11.63648438 -10.0821875 11.27296875 -9.609375 10.8984375 C-5.56506013 7.58481817 -2.67466686 4.49344033 0 0 Z " fill="#3D1A08" transform="translate(197,165)"/>
<path d="M0 0 C0.33 0.66 0.66 1.32 1 2 C-0.25 4.625 -0.25 4.625 -2 7 C-2.99 7 -3.98 7 -5 7 C-5.66 8.32 -6.32 9.64 -7 11 C-6.68232368 5.59950264 -3.80003673 3.47662935 0 0 Z " fill="#311707" transform="translate(117,128)"/>
<path d="M0 0 C0 3.60777515 -0.9904432 5.06295544 -3 8 C-3.99 8.495 -3.99 8.495 -5 9 C-5.99 8.34 -6.98 7.68 -8 7 C-5.36 4.69 -2.72 2.38 0 0 Z " fill="#331A0E" transform="translate(140,148)"/>
<path d="M0 0 C4.14058636 -0.19258541 7.38684234 -0.16789459 11 2 C11.8125 4.625 11.8125 4.625 12 7 C11.46890625 6.66226563 10.9378125 6.32453125 10.390625 5.9765625 C9.68421875 5.53054687 8.9778125 5.08453125 8.25 4.625 C7.55390625 4.18414062 6.8578125 3.74328125 6.140625 3.2890625 C4.13482617 2.08119094 2.10821704 1.01612263 0 0 Z " fill="#D3763F" transform="translate(170,128)"/>
<path d="M0 0 C3.94637474 0.56376782 6.83196811 1.5359752 10 4 C10.8125 6.6875 10.8125 6.6875 11 9 C10.54109375 8.60167969 10.0821875 8.20335938 9.609375 7.79296875 C6.47728415 5.08857938 3.36122541 2.42008229 0 0 Z " fill="#3D1B0A" transform="translate(147,70)"/>
<path d="M0 0 C4.95 0 9.9 0 15 0 C15.33 0.99 15.66 1.98 16 3 C10.72 2.34 5.44 1.68 0 1 C0 0.67 0 0.34 0 0 Z " fill="#4A2611" transform="translate(126,65)"/>
<path d="M0 0 C1.9375 0.8125 1.9375 0.8125 4 2 C4.33 2.99 4.66 3.98 5 5 C3.35 5.66 1.7 6.32 0 7 C-0.38133299 5.0085944 -0.71325582 3.00720923 -1 1 C-0.67 0.67 -0.34 0.34 0 0 Z " fill="#272727" transform="translate(226,48)"/>
<path d="M0 0 C-0.66 1.32 -1.32 2.64 -2 4 C-4.31 3.67 -6.62 3.34 -9 3 C-3 0 -3 0 0 0 Z " fill="#2A1C12" transform="translate(152,66)"/>
<path d="M0 0 C2.9375 0.8125 2.9375 0.8125 6 2 C6.33 2.99 6.66 3.98 7 5 C5.68 5.33 4.36 5.66 3 6 C0 2.25 0 2.25 0 0 Z " fill="#2D1B0E" transform="translate(70,178)"/>
<path d="M0 0 C1.134375 0.020625 2.26875 0.04125 3.4375 0.0625 C1.7875 1.7125 0.1375 3.3625 -1.5625 5.0625 C-1.5625 4.0725 -1.5625 3.0825 -1.5625 2.0625 C-2.5525 1.7325 -3.5425 1.4025 -4.5625 1.0625 C-3.5625 0.0625 -3.5625 0.0625 0 0 Z " fill="#26170E" transform="translate(134.5625,171.9375)"/>
<path d="M0 0 C0.99 0.33 1.98 0.66 3 1 C2.67 2.32 2.34 3.64 2 5 C0.68 5 -0.64 5 -2 5 C-1.125 1.125 -1.125 1.125 0 0 Z " fill="#271812" transform="translate(94,82)"/>
</svg>
